<svg id="Layer_1" data-name="Layer 1" xmlns="http://www.w3.org/2000/svg" viewBox="0 0 768.61 235.6"><defs><style>.cls-1{fill:#1b5da4;}.cls-2{fill:#fff;}.cls-3{fill:#ec283d;}</style></defs><title>nasa-img-search</title><path class="cls-1" d="M257.51,133c0,64.62-53.23,117.8-117.92,117.8S21.67,197.61,21.67,133A117.62,117.62,0,0,1,139.59,15.2C203,15.2,257.51,68.38,257.51,133" transform="translate(-7.38 -15.2)"/><path class="cls-2" d="M166.19,195c50.38,20.72,41.64-31.65,14.78-71.75-15.22-22.72-35.07-41.64-47.59-50.78C91.87,42.17,66.24,60.55,95.56,120.3c9.48,19.32,21.65,32.36,31.16,44.65,7.26,9.38,21.4,14.08,16.42,18.53-5.61,5-19.21-17.12-19.21-17.12A269,269,0,0,1,94.45,123.6C71.92,83.1,75.17,41.77,116,59.77c34.62,15.29,67.68,58.17,81,88.62,6.14,14.06,22.88,69.69-30.44,47.2" transform="translate(-7.38 -15.2)"/><path class="cls-3" d="M9.53,167.92c22.16-14.76,43.18-24.29,78.93-36.1,50.25-16.6,88.07-27.76,134.47-51.08,20.77-10.44,56.81-33.85,69.7-54.2-3.86,7.88-15.81,23.21-21.22,30-63,78.83-197.07,74.36-261,112.21" transform="translate(-7.38 -15.2)"/><path class="cls-2" d="M41.68,110.3c20.28,0.16,18.29,0,18.53.2,0.35,0,16.2,27.28,16.2,27.52s-0.12-9.7-.12-22c0-1.42-3.9-5.55-3.78-5.55,5.79,0,13.36.12,13.36,0.12-2.84,3.31-3.4,3-3.43,5.08-0.08,6.57-.15,18.72,0,32.36,0,2,1.54,2.83,4,6.38H67.89c-6-10-17.08-28.87-17-28.82s-0.24,11.81.12,21.26c0.12,3.12,1.54,4.13,4.14,7,0,0,3-.08-14.54.12,5.32-2.83,4.61-6.38,4.61-6.49-0.19-13.05,0-24.21,0-31.42,0-1.18-.08-1.06-3.74-5.55" transform="translate(-7.38 -15.2)"/><path class="cls-2" d="M105.1,130.46c1.7-5.91,3.16-11.2,3.85-14.64,0.12-.59-1.3-2.72-3.55-4.84l-0.16-.33c10.83,0,22.15.09,22.15,0.09,3,7.2,9.69,27.4,14.78,39.8,1.34,3.28,3.66,3.9,3.66,3.9-9.22-.12-26.33,0-26.24-0.12,4.61-4.14,4-4.14,2-10.16H107.18c-3,6.85.92,10.06,1.42,10-3.28.17-14.42,0-14.42,0,6-4.25,5.67-5.55,5.67-5.55,1.66-5.89,3.58-12.35,5.26-18.19H111l-2.54,8.15h11.47l-6.39-16.3L111,130.46H105.1" transform="translate(-7.38 -15.2)"/><path class="cls-2" d="M204.17,131c1.7-5.91,3.16-11.2,3.85-14.64,0.12-.59-1.3-2.71-3.55-4.84l-0.16-.33c10.83,0,22.15.09,22.15,0.09,3,7.2,9.69,27.4,14.77,39.8,1.34,3.28,3.66,3.9,3.66,3.9-9.22-.12-26.33,0-26.24-0.12,4.61-4.13,4-4.13,2-10.15H206.24c-3,6.85.92,10.06,1.42,10-3.28.17-14.42,0-14.42,0,6-4.25,5.67-5.55,5.67-5.55,1.66-5.89,3.58-12.35,5.26-18.19h5.92c-1.27,4.08-2.54,8.15-2.54,8.15H219l-6.38-16.3-2.54,8.15h-5.92" transform="translate(-7.38 -15.2)"/><path class="cls-2" d="M185.52,121.37c-0.24-8.39,0-11.1,0-11.1-3.67,3-1.82,2.58-11,1.06-26.45-4.36-28.46,20.32-14.07,25.86,12.08,4.65,16.36,5.56,14.54,9.92-0.59,1.42-11.58,6.62-22.93-3.9l0.23,14.64a50.7,50.7,0,0,1,5.32-4.13c0.12,0,12.3,5.37,23.29-.24,16.91-8.62,8.47-22.57-9.57-28.11-15-4.61-.83-15.35,14.07-3.9" transform="translate(-7.38 -15.2)"/><path class="cls-2" d="M141.25,25.9a1,1,0,1,1-1-1,1,1,0,0,1,1,1" transform="translate(-7.38 -15.2)"/><path class="cls-2" d="M147.91,40.44a1.18,1.18,0,1,1-1.18-1.18,1.19,1.19,0,0,1,1.18,1.18" transform="translate(-7.38 -15.2)"/><path class="cls-2" d="M165.19,64.21a1.18,1.18,0,0,1-2.36,0A1.16,1.16,0,0,1,164,63a1.22,1.22,0,0,1,1.22,1.18" transform="translate(-7.38 -15.2)"/><path class="cls-2" d="M137.41,48.63a1,1,0,1,1-1-1,1,1,0,0,1,1,1" transform="translate(-7.38 -15.2)"/><path class="cls-2" d="M147.76,54.1a1,1,0,1,1-1-1,1,1,0,0,1,1,1" transform="translate(-7.38 -15.2)"/><path class="cls-2" d="M134.31,38.81a1.18,1.18,0,1,1-1.18-1.18,1.19,1.19,0,0,1,1.18,1.18" transform="translate(-7.38 -15.2)"/><path class="cls-2" d="M118.65,48.34a1,1,0,1,1-1-1,1,1,0,0,1,1,1" transform="translate(-7.38 -15.2)"/><path class="cls-2" d="M121.45,50.25a1,1,0,1,1-1-1,1,1,0,0,1,1,1" transform="translate(-7.38 -15.2)"/><path class="cls-2" d="M124.26,52.17a1,1,0,1,1-1-1,1,1,0,0,1,1,1" transform="translate(-7.38 -15.2)"/><path class="cls-2" d="M120,55.87a1,1,0,1,1-1-1,1,1,0,0,1,1,1" transform="translate(-7.38 -15.2)"/><path class="cls-2" d="M97.66,71.51a1,1,0,1,1-1-1,1,1,0,0,1,1,1" transform="translate(-7.38 -15.2)"/><path class="cls-2" d="M101.8,76.53a1,1,0,1,1-1-1,1,1,0,0,1,1,1" transform="translate(-7.38 -15.2)"/><path class="cls-2" d="M98.51,157.58a1,1,0,1,1-1-1,1,1,0,0,1,1,1" transform="translate(-7.38 -15.2)"/><path class="cls-2" d="M99.1,179.94a1.18,1.18,0,1,1-1.18-1.18,1.19,1.19,0,0,1,1.18,1.18" transform="translate(-7.38 -15.2)"/><path class="cls-2" d="M86.39,191.39a1,1,0,1,1-1-1,1,1,0,0,1,1,1" transform="translate(-7.38 -15.2)"/><path class="cls-2" d="M71.17,196A1.18,1.18,0,1,1,70,194.85,1.19,1.19,0,0,1,71.17,196" transform="translate(-7.38 -15.2)"/><path class="cls-2" d="M68.07,185.7a1.18,1.18,0,1,1-1.18-1.18,1.19,1.19,0,0,1,1.18,1.18" transform="translate(-7.38 -15.2)"/><path class="cls-2" d="M66.3,192.27a1,1,0,1,1-1-1,1,1,0,0,1,1,1" transform="translate(-7.38 -15.2)"/><path class="cls-2" d="M54.92,186.81a1,1,0,1,1-1-1,1,1,0,0,1,1,1" transform="translate(-7.38 -15.2)"/><path class="cls-2" d="M94.67,205.26a0.93,0.93,0,0,1-.92,1,1,1,0,0,1-1-1,1,1,0,0,1,1.92,0" transform="translate(-7.38 -15.2)"/><path class="cls-2" d="M106.64,196.48a1.16,1.16,0,0,1-1.15,1.18,1.22,1.22,0,0,1-1.22-1.18,1.18,1.18,0,0,1,2.36,0" transform="translate(-7.38 -15.2)"/><path class="cls-2" d="M108,207.77a1,1,0,0,1-1,1,1,1,0,1,1,0-1.92,1,1,0,0,1,1,1" transform="translate(-7.38 -15.2)"/><path class="cls-2" d="M157.21,197a1,1,0,1,1-1-1,1,1,0,0,1,1,1" transform="translate(-7.38 -15.2)"/><path class="cls-2" d="M134.31,205.11a1,1,0,1,1-1-1,1,1,0,0,1,1,1" transform="translate(-7.38 -15.2)"/><path class="cls-2" d="M195.93,216.78a1,1,0,1,1-1-1,1,1,0,0,1,1,1" transform="translate(-7.38 -15.2)"/><path class="cls-2" d="M200.95,171.38a1.18,1.18,0,1,1-1.18-1.18,1.19,1.19,0,0,1,1.18,1.18" transform="translate(-7.38 -15.2)"/><path class="cls-2" d="M191.5,177.8a1,1,0,1,1-1-1,1,1,0,0,1,1,1" transform="translate(-7.38 -15.2)"/><path class="cls-2" d="M200.81,179.65a1.18,1.18,0,1,1-1.18-1.18,1.19,1.19,0,0,1,1.18,1.18" transform="translate(-7.38 -15.2)"/><path class="cls-2" d="M191.5,191.09a1,1,0,1,1-1-1,1,1,0,0,1,1,1" transform="translate(-7.38 -15.2)"/><path class="cls-2" d="M215.58,165a1,1,0,1,1-1-1,1,1,0,0,1,1,1" transform="translate(-7.38 -15.2)"/><path class="cls-2" d="M217.91,170.79a1.15,1.15,0,0,1-1.14,1.18,1.22,1.22,0,0,1-1.22-1.18,1.18,1.18,0,0,1,2.36,0" transform="translate(-7.38 -15.2)"/><path class="cls-2" d="M234.5,177.73a1.18,1.18,0,1,1-1.18-1.18,1.18,1.18,0,0,1,1.18,1.18" transform="translate(-7.38 -15.2)"/><path class="cls-2" d="M217.65,190.06a1,1,0,1,1-1-1,1,1,0,0,1,1,1" transform="translate(-7.38 -15.2)"/><path class="cls-2" d="M228.29,180a1,1,0,1,1-1-1,1,1,0,0,1,1,1" transform="translate(-7.38 -15.2)"/><path class="cls-2" d="M226.33,195.52a1,1,0,1,1-1-1,1,1,0,0,1,1,1" transform="translate(-7.38 -15.2)"/><path class="cls-2" d="M230.84,169.76a1.48,1.48,0,1,1-1.48-1.48,1.48,1.48,0,0,1,1.48,1.48" transform="translate(-7.38 -15.2)"/><path class="cls-2" d="M229.36,165.26l-0.44,4.06-4,.44L229,170.2l0.44,4.21,0.45-4.21,4-.52-4-.37-0.44-4.06" transform="translate(-7.38 -15.2)"/><path class="cls-2" d="M220.49,195.44A1.48,1.48,0,1,1,219,194a1.48,1.48,0,0,1,1.48,1.48" transform="translate(-7.38 -15.2)"/><path class="cls-2" d="M219,190.94L218.58,195l-4,.44,4.06,0.44,0.45,4.21,0.44-4.21,4-.52-4-.37L219,190.94" transform="translate(-7.38 -15.2)"/><path class="cls-2" d="M110.26,73.5A1.48,1.48,0,1,1,108.78,72a1.48,1.48,0,0,1,1.48,1.48" transform="translate(-7.38 -15.2)"/><path class="cls-2" d="M108.78,69l-0.44,4.06-4,.44,4.06,0.44,0.44,4.21,0.44-4.21,4-.51-4-.37L108.78,69" transform="translate(-7.38 -15.2)"/><path class="cls-2" d="M165.23,37.78a1.48,1.48,0,1,1-1.48-1.48,1.49,1.49,0,0,1,1.48,1.48" transform="translate(-7.38 -15.2)"/><path class="cls-2" d="M163.75,33.28l-0.44,4.06-4,.44,4.06,0.44,0.44,4.21,0.44-4.21,4-.52-4-.37-0.44-4.06" transform="translate(-7.38 -15.2)"/><path class="cls-2" d="M98.4,219.07a1.48,1.48,0,1,1-1.48-1.48,1.48,1.48,0,0,1,1.48,1.48" transform="translate(-7.38 -15.2)"/><path class="cls-2" d="M97,214.56l-0.44,4.06-4,.44,4.06,0.44L97,223.71l0.44-4.21,4-.52-4-.37L97,214.56" transform="translate(-7.38 -15.2)"/><path class="cls-3" d="M292.62,26.54c-18,53.31-90,94.48-150.56,133.78-36.56,23.71-72.86,51-97.84,74.24-6.59,6.13,1.34-2.29-1.18.3,34.87-40.15,75-64.07,97.15-79.12,37.49-25.47,58.81-31.89,123.49-91.46" transform="translate(-7.38 -15.2)"/><path class="cls-3" d="M24.51,158.62c-6.45,3.16-12.23,6.28-17.14,9.32l3,1.09a131,131,0,0,1,14.86-7.83" transform="translate(-7.38 -15.2)"/><path class="cls-3" d="M58.59,218.28c-5.9,5.15-12,10.65-18.11,16.41l-0.27,4.07a266,266,0,0,1,20.42-18.61" transform="translate(-7.38 -15.2)"/><path class="cls-2" d="M166.19,195c50.38,20.72,41.64-31.65,14.78-71.75-15.22-22.72-34-40.74-47.59-50.78C117.5,60.75,116,59.78,116,59.78c35.46,16.83,67.68,58.17,81,88.62,6.14,14.06,22.88,69.69-30.44,47.2" transform="translate(-7.38 -15.2)"/><path class="cls-1" d="M315.9,110.27V32h17.66v78.26H315.9Z" transform="translate(-7.38 -15.2)"/><path class="cls-1" d="M420,110.27V57.5l-20.8,44.83H387.68L366.88,57.5v52.77h-16V32h19.79l22.81,47.85L416.19,32h19.68v78.26H420Z" transform="translate(-7.38 -15.2)"/><path class="cls-1" d="M468.63,95.06l-6.15,15.21H444.25l34-78.26h18.22l33.43,78.26H511l-6.15-15.21H468.63Zm18.22-44.61L474.44,80.86h24.71Z" transform="translate(-7.38 -15.2)"/><path class="cls-1" d="M603.8,70.8v30.07c-8.27,6-20.91,10.17-31.75,10.17-23.7,0-41.7-17.22-41.7-39.91s18.34-39.69,42.71-39.69c11.63,0,23.48,4.47,31.42,11.4l-10,12.63a32.75,32.75,0,0,0-21.47-8.72,24.13,24.13,0,0,0-24.6,24.37c0,13.86,10.84,24.48,24.71,24.48,4.7,0,10.29-1.68,15.32-4.25V70.8H603.8Z" transform="translate(-7.38 -15.2)"/><path class="cls-1" d="M636.9,46.65v17h37.79V78.29H636.9V95.62h43.16v14.65H619.23V32h59.59V46.65H636.9Z" transform="translate(-7.38 -15.2)"/><path class="cls-1" d="M374.26,173.89l-6.82,14.65c-8.27-4.92-18.11-8-24.37-8-5.93,0-10,2.12-10,6.37,0,14.42,41.7,6.37,41.59,34.55,0,15.32-13.3,23.59-30.63,23.59a55,55,0,0,1-34.55-12.41l7-14.42c8,7.16,19.45,11.74,27.73,11.74,7.27,0,11.63-2.68,11.63-7.49,0-14.76-41.7-6.15-41.7-33.88,0-14.2,12.19-23.14,30.3-23.14C355.48,165.39,366.43,168.75,374.26,173.89Z" transform="translate(-7.38 -15.2)"/><path class="cls-1" d="M404.78,180.82v17h37.79v14.65H404.78v17.33h43.16v14.65H387.12V166.18h59.59v14.65H404.78Z" transform="translate(-7.38 -15.2)"/><path class="cls-1" d="M477.24,229.23l-6.15,15.21H452.86l34-78.26h18.22l33.43,78.26H519.61l-6.15-15.21H477.24Zm18.22-44.61L483,215h24.71Z" transform="translate(-7.38 -15.2)"/><path class="cls-1" d="M582.33,222.08h-18v22.36H546.67V166.18h34c20.46,0,32.09,9.84,32.09,27.17,0,12.07-5.14,20.79-14.65,25.27l16.66,25.83h-20Zm-1.68-14.76c9.73,0,15.32-4.47,15.32-13.42,0-8.72-5.59-13.08-15.32-13.08H564.33v26.5h16.32Z" transform="translate(-7.38 -15.2)"/><path class="cls-1" d="M694.59,178.59L684.3,191.11c-5.37-6.15-13.08-10.17-20.35-10.17-13.42,0-23.81,10.4-23.81,24s10.4,24.15,23.81,24.15c7,0,14.76-3.58,20.35-9.17l10.4,11.29c-8.27,8.5-20.24,14-31.64,14-23.37,0-41-17.33-41-40s18-39.58,41.7-39.58A44.53,44.53,0,0,1,694.59,178.59Z" transform="translate(-7.38 -15.2)"/><path class="cls-1" d="M758.32,244.44V213.58H722.88v30.86H705.21V166.18h17.67v32.65h35.44V166.18H776v78.26H758.32Z" transform="translate(-7.38 -15.2)"/></svg>